<svg width="17" height="21" viewBox="0 0 17 21" fill="none" xmlns="http://www.w3.org/2000/svg">
<path d="M4.9097 10.5881C5.05053 10.5356 5.20197 10.5083 5.35508 10.5078C5.50819 10.5074 5.65986 10.5337 5.80112 10.5853C5.94237 10.6368 6.07036 10.7126 6.1775 10.8081C6.28464 10.9036 6.36877 11.0168 6.4249 11.1412C6.48104 11.2656 6.50805 11.3985 6.50433 11.5321C6.50062 11.6657 6.46625 11.7974 6.40327 11.9192C6.34028 12.041 6.24996 12.1506 6.13764 12.2415C6.02531 12.3323 5.89327 12.4025 5.74931 12.4481C4.98363 12.7114 4.32647 13.1699 3.86334 13.7638C3.40021 14.3577 3.15255 15.0596 3.15259 15.7781V17.5181C3.15259 17.7833 3.27327 18.0376 3.48808 18.2252C3.70289 18.4127 3.99424 18.5181 4.29803 18.5181H13.4616C13.7654 18.5181 14.0567 18.4127 14.2715 18.2252C14.4864 18.0376 14.607 17.7833 14.607 17.5181V15.8711C14.6072 15.1295 14.3492 14.4055 13.8672 13.7949C13.3853 13.1843 12.7021 12.716 11.9084 12.4521C11.7635 12.4082 11.6302 12.3394 11.5164 12.2497C11.4026 12.16 11.3106 12.0513 11.2458 11.9299C11.181 11.8086 11.1447 11.6772 11.1392 11.5434C11.1337 11.4096 11.159 11.2763 11.2136 11.1512C11.2682 11.0261 11.351 10.9119 11.4571 10.8152C11.5632 10.7186 11.6905 10.6416 11.8313 10.5887C11.9722 10.5358 12.1238 10.5081 12.2771 10.5074C12.4304 10.5066 12.5824 10.5326 12.7239 10.5841C13.9514 10.9922 15.0078 11.7164 15.7532 12.6606C16.4986 13.6047 16.8978 14.7244 16.8979 15.8711V17.5181C16.8979 18.3137 16.5359 19.0768 15.8915 19.6394C15.247 20.202 14.373 20.5181 13.4616 20.5181H4.29803C3.38666 20.5181 2.51261 20.202 1.86817 19.6394C1.22374 19.0768 0.861694 18.3137 0.861694 17.5181L0.861694 15.7781C0.861852 14.6582 1.24803 13.5643 1.96998 12.6387C2.69194 11.7131 3.71626 10.9985 4.9097 10.5881ZM8.87981 0.518066C10.095 0.518066 11.2604 0.939494 12.1196 1.68964C12.9789 2.43978 13.4616 3.4572 13.4616 4.51807V6.51807C13.4616 7.57893 12.9789 8.59635 12.1196 9.34649C11.2604 10.0966 10.095 10.5181 8.87981 10.5181C7.66465 10.5181 6.49925 10.0966 5.64 9.34649C4.78075 8.59635 4.29803 7.57893 4.29803 6.51807V4.51807C4.29803 3.4572 4.78075 2.43978 5.64 1.68964C6.49925 0.939494 7.66465 0.518066 8.87981 0.518066ZM8.87981 2.51807C8.27223 2.51807 7.68953 2.72878 7.25991 3.10385C6.83028 3.47893 6.58892 3.98763 6.58892 4.51807V6.51807C6.58892 7.0485 6.83028 7.55721 7.25991 7.93228C7.68953 8.30735 8.27223 8.51807 8.87981 8.51807C9.4874 8.51807 10.0701 8.30735 10.4997 7.93228C10.9293 7.55721 11.1707 7.0485 11.1707 6.51807V4.51807C11.1707 3.98763 10.9293 3.47893 10.4997 3.10385C10.0701 2.72878 9.4874 2.51807 8.87981 2.51807Z" fill="#181725"/>
</svg>
