<svg width="47" height="47" viewBox="0 0 47 47" fill="none" xmlns="http://www.w3.org/2000/svg">
<rect x="0.895996" y="0.892349" width="45.67" height="45.6684" rx="17" fill="#53B175"/>
<path d="M32.231 23.7266C32.231 24.1024 32.0868 24.4657 31.8174 24.7288C31.5542 24.9981 31.1908 25.1485 30.8148 25.1485H25.1502V30.811C25.1502 31.1868 24.9998 31.5501 24.7304 31.8132C24.4672 32.0762 24.1101 32.2266 23.7341 32.2266C23.3581 32.2266 22.9947 32.0762 22.7315 31.8132C22.4621 31.5501 22.3117 31.1868 22.3117 30.811V25.1485H16.6471C16.2711 25.1485 15.9077 24.9981 15.6445 24.7288C15.3813 24.4657 15.231 24.1024 15.231 23.7266C15.231 23.3507 15.3813 22.9937 15.6445 22.7244C15.9077 22.4613 16.2711 22.311 16.6471 22.311H22.3117V16.6485C22.3117 16.2726 22.4621 15.9093 22.7315 15.6463C22.9947 15.3769 23.3581 15.2266 23.7341 15.2266C24.1101 15.2266 24.4672 15.3769 24.7304 15.6463C24.9998 15.9093 25.1502 16.2726 25.1502 16.6485V22.311H30.8148C31.1908 22.311 31.5542 22.4613 31.8174 22.7244C32.0868 22.9937 32.231 23.3507 32.231 23.7266Z" fill="white"/>
</svg>
