<svg width="23" height="21" viewBox="0 0 23 21" fill="none" xmlns="http://www.w3.org/2000/svg">
<path d="M9.22593 20.5181C8.57738 20.5181 7.95539 20.2604 7.4968 19.8018C7.03821 19.3432 6.78057 18.7212 6.78057 18.0727C6.78057 17.4241 7.03821 16.8021 7.4968 16.3436C7.95539 15.885 8.57738 15.6273 9.22593 15.6273C9.87448 15.6273 10.4965 15.885 10.9551 16.3436C11.4137 16.8021 11.6713 17.4241 11.6713 18.0727C11.6713 18.7212 11.4137 19.3432 10.9551 19.8018C10.4965 20.2604 9.87448 20.5181 9.22593 20.5181ZM17.7847 20.5181C17.1362 20.5181 16.5142 20.2604 16.0556 19.8018C15.597 19.3432 15.3393 18.7212 15.3393 18.0727C15.3393 17.4241 15.597 16.8021 16.0556 16.3436C16.5142 15.885 17.1362 15.6273 17.7847 15.6273C18.4333 15.6273 19.0552 15.885 19.5138 16.3436C19.9724 16.8021 20.2301 17.4241 20.2301 18.0727C20.2301 18.7212 19.9724 19.3432 19.5138 19.8018C19.0552 20.2604 18.4333 20.5181 17.7847 20.5181ZM1.84338 3.30636C1.53815 3.29651 1.24872 3.16834 1.03629 2.94895C0.823853 2.72955 0.705078 2.43614 0.705078 2.13075C0.705078 1.82536 0.823853 1.53195 1.03629 1.31255C1.24872 1.09316 1.53815 0.964984 1.84338 0.955139L3.25069 0.955139C4.35355 0.955139 5.30724 1.72054 5.54688 2.7965L7.0789 9.69487C7.31855 10.7708 8.27224 11.5362 9.3751 11.5362H18.5599L20.323 4.48135H8.89703C8.59468 4.46756 8.30928 4.33774 8.10019 4.11889C7.89111 3.90005 7.77443 3.60903 7.77443 3.30636C7.77443 3.00369 7.89111 2.71266 8.10019 2.49382C8.30928 2.27498 8.59468 2.14516 8.89703 2.13136H20.323C20.6804 2.13125 21.0332 2.21264 21.3544 2.36933C21.6757 2.52603 21.957 2.7539 22.177 3.03564C22.3969 3.31737 22.5498 3.64554 22.6238 3.99521C22.6979 4.34488 22.6913 4.70684 22.6045 5.05357L20.8414 12.106C20.7143 12.6149 20.4207 13.0666 20.0073 13.3894C19.5939 13.7122 19.0844 13.8875 18.5599 13.8874H9.3751C8.305 13.8876 7.26686 13.5227 6.43212 12.8532C5.59738 12.1836 5.01598 11.2494 4.78393 10.2047L3.25069 3.30636H1.84338Z" fill="#181725"/>
</svg>
