<svg width="24" height="20" viewBox="0 0 24 20" fill="none" xmlns="http://www.w3.org/2000/svg">
<path d="M3.97914 9.00969L11.8032 16.8338L19.6273 9.00969C20.3191 8.31794 20.7077 7.37973 20.7077 6.40145C20.7077 5.42317 20.3191 4.48496 19.6273 3.79321C19.2848 3.4507 18.8782 3.179 18.4307 2.99363C17.9831 2.80826 17.5035 2.71285 17.0191 2.71285C16.0408 2.71285 15.1026 3.10147 14.4109 3.79321L11.8032 6.40084L9.19562 3.79444C8.50211 3.11198 7.56702 2.7312 6.59403 2.73504C5.62105 2.73889 4.68899 3.12705 4.0009 3.81498C3.31281 4.50291 2.92443 5.43487 2.92035 6.40786C2.91628 7.38084 3.29684 8.31602 3.97914 9.00969ZM10.934 2.05357L11.8032 2.92278L12.6724 2.05357C13.2424 1.47865 13.9202 1.02196 14.6671 0.709714C15.414 0.397469 16.2152 0.23582 17.0247 0.234047C17.8342 0.232274 18.6361 0.390413 19.3843 0.699384C20.1326 1.00836 20.8124 1.46207 21.3848 2.03449C21.9573 2.60691 22.411 3.28675 22.7199 4.03499C23.0289 4.78323 23.1871 5.58513 23.1853 6.39465C23.1835 7.20417 23.0219 8.00536 22.7096 8.75224C22.3974 9.49912 21.9407 10.177 21.3658 10.7469L12.6737 19.4402C12.5595 19.5545 12.4239 19.6452 12.2747 19.707C12.1254 19.7689 11.9654 19.8008 11.8039 19.8008C11.6423 19.8008 11.4823 19.7689 11.3331 19.707C11.1838 19.6452 11.0482 19.5545 10.934 19.4402L2.24072 10.7481C1.65799 10.18 1.19385 9.50191 0.875231 8.75306C0.556614 8.00421 0.389862 7.19955 0.384648 6.38576C0.379434 5.57196 0.535861 4.76523 0.844856 4.01237C1.15385 3.2595 1.60926 2.57548 2.18467 1.99999C2.76009 1.42449 3.44404 0.968985 4.19687 0.659884C4.94969 0.350782 5.7564 0.19424 6.57019 0.199339C7.38399 0.204438 8.18867 0.371077 8.93756 0.689588C9.68646 1.0081 10.3646 1.47214 10.9328 2.0548L10.934 2.05357Z" fill="#181725"/>
</svg>
