<svg width="20" height="21" viewBox="0 0 20 21" fill="none" xmlns="http://www.w3.org/2000/svg">
<path d="M7 7.75407C7.53 8.22907 8.232 8.51807 9 8.51807H11C11.7381 8.51909 12.4505 8.24695 13 7.75407H7ZM7 7.75407C6.45054 8.24695 5.73814 8.51909 5 8.51807L7 7.75407ZM6.05 2.51807V2.46807H6H3C2.72153 2.46807 2.45445 2.57869 2.25754 2.7756C2.06063 2.97252 1.95 3.23959 1.95 3.51807V5.51807C1.95 5.79654 2.06063 6.06362 2.25754 6.26053C2.45445 6.45744 2.72153 6.56807 3 6.56807H5C5.27848 6.56807 5.54555 6.45744 5.74247 6.26053C5.93938 6.06362 6.05 5.79654 6.05 5.51807V2.51807ZM3.01 8.46807H2.96V8.51807V18.4831V18.5331H3.01H5H5.05V18.4831V13.5181C5.05 13.0009 5.25545 12.5049 5.62114 12.1392C5.98684 11.7735 6.48283 11.5681 7 11.5681H9C9.51717 11.5681 10.0132 11.7735 10.3789 12.1392C10.7446 12.5049 10.95 13.0009 10.95 13.5181V18.4831V18.5331H11H17.013H17.063V18.4831V8.51807V8.46807H17.013H15C14.2448 8.46807 13.5545 8.18391 13.0334 7.71683L13 7.68691L12.9666 7.71685C12.4263 8.20148 11.7259 8.46907 11.0001 8.46807H11H9C8.24476 8.46807 7.55454 8.18391 7.03337 7.71683L6.99999 7.68691L6.96662 7.71685C6.42634 8.20148 5.72586 8.46907 5.00007 8.46807H5H3.01ZM1.00817 7.69519C0.711731 7.42442 0.473701 7.09573 0.308902 6.72925C0.137674 6.34848 0.0494202 5.93564 0.0500029 5.51814V5.51807V3.51807C0.0500029 2.73568 0.360806 1.98533 0.914038 1.4321C1.46727 0.878869 2.21761 0.568066 3 0.568066H17C17.7824 0.568066 18.5327 0.878869 19.086 1.4321C19.6392 1.98533 19.95 2.73568 19.95 3.51807V5.51807C19.95 6.3854 19.5764 7.1661 18.9795 7.70598L18.963 7.72087V7.74307V18.4831C18.963 19.0002 18.7576 19.4962 18.3919 19.8619C18.0262 20.2276 17.5302 20.4331 17.013 20.4331H9.373V20.4322L9.36371 20.4339C9.2438 20.4566 9.12203 20.468 8.99999 20.4681H7C6.87798 20.468 6.75621 20.4566 6.63629 20.4339L6.63646 20.4331H6.627H3.011C2.49383 20.4331 1.99784 20.2276 1.63214 19.8619C1.26645 19.4962 1.061 19.0002 1.061 18.4831V7.76307V7.64237L1.00817 7.69519ZM9.05 13.5181V13.4681H9H7H6.95V13.5181V18.4831V18.5331H7H9V18.4841H9.05V18.4831V18.4331V13.5181ZM12.05 2.51807V2.46807H12H8H7.95V2.51807V5.51807C7.95 5.79654 8.06063 6.06362 8.25754 6.26053C8.45445 6.45744 8.72153 6.56807 9 6.56807H11C11.2785 6.56807 11.5456 6.45744 11.7425 6.26053C11.9394 6.06362 12.05 5.79654 12.05 5.51807V2.51807ZM14 2.46807H13.95V2.51807V5.51807C13.95 5.79654 14.0606 6.06362 14.2575 6.26053C14.4545 6.45744 14.7215 6.56807 15 6.56807H17C17.2785 6.56807 17.5456 6.45744 17.7425 6.26053C17.9394 6.06362 18.05 5.79654 18.05 5.51807V3.51807C18.05 3.23959 17.9394 2.97252 17.7425 2.7756C17.5456 2.57869 17.2785 2.46807 17 2.46807H14ZM14 11.5681H15C15.252 11.5681 15.4936 11.6682 15.6718 11.8463C15.8499 12.0245 15.95 12.2661 15.95 12.5181V15.5181C15.95 15.77 15.8499 16.0117 15.6718 16.1898C15.4936 16.368 15.252 16.4681 15 16.4681H14C13.748 16.4681 13.5064 16.368 13.3283 16.1898C13.1501 16.0117 13.05 15.77 13.05 15.5181V12.5181C13.05 12.2661 13.1501 12.0245 13.3283 11.8463C13.5064 11.6682 13.748 11.5681 14 11.5681Z" fill="#53B175" stroke="white" stroke-width="0.1"/>
</svg>
