<svg width="94" height="15" viewBox="0 0 94 15" fill="none" xmlns="http://www.w3.org/2000/svg">
<path d="M8.29915 11.9694L3.75063 14.3612L4.61937 9.29614L0.93811 5.70846L6.02378 4.96941L8.29915 0.361206L10.5738 4.96941L15.6595 5.70846L11.9789 9.29614L12.8484 14.3612L8.29915 11.9694Z" fill="#F3603F"/>
<path d="M27.7364 11.9694L23.1879 14.3612L24.0566 9.29617L20.3754 5.70849L25.461 4.96944L27.7364 0.361237L30.011 4.96944L35.0967 5.70849L31.4162 9.29617L32.2857 14.3612L27.7364 11.9694Z" fill="#F3603F"/>
<path d="M47.1738 11.9694L42.6253 14.3612L43.494 9.29617L39.8127 5.70849L44.8984 4.96944L47.1738 0.361237L49.4484 4.96944L54.5341 5.70849L50.8536 9.29617L51.723 14.3612L47.1738 11.9694Z" fill="#F3603F"/>
<path d="M66.6112 11.9694L62.0626 14.3612L62.9314 9.29617L59.2501 5.70849L64.3358 4.96944L66.6112 0.361237L68.8858 4.96944L73.9715 5.70849L70.2909 9.29617L71.1604 14.3612L66.6112 11.9694Z" fill="#F3603F"/>
<path d="M86.0487 11.9694L81.5001 14.3612L82.3689 9.29617L78.6876 5.70849L83.7733 4.96944L86.0487 0.361237L88.3233 4.96944L93.409 5.70849L89.7284 9.29617L90.5979 14.3612L86.0487 11.9694Z" fill="#F3603F"/>
</svg>
